<svg width="375" height="667" viewBox="0 0 375 667" fill="none" xmlns="http://www.w3.org/2000/svg">
<rect width="375" height="667" fill="white" stroke="#333" stroke-width="2"/>
<rect x="1" y="1" width="373" height="50" fill="#f0f0f0"/>
<text x="50%" y="30" dominant-baseline="middle" text-anchor="middle" font-family="Arial" font-size="18">Cleanup Events</text>

<text x="20" y="80" font-family="Arial" font-size="14">Upcoming Events Near You</text>

<!-- Event 1 -->
<rect x="20" y="100" width="335" height="80" fill="#eef8ff" rx="10" stroke="#bde0fe"/>
<text x="35" y="125" font-family="Arial" font-size="16" font-weight="bold">Ocean Beach Cleanup</text>
<text x="35" y="145" font-family="Arial" font-size="12">Sat, Nov 29, 2025 - 9:00 AM</text>
<rect x="270" y="120" width="70" height="30" fill="#a2d2ff" rx="5"/>
<text x="305" y="135" dominant-baseline="middle" text-anchor="middle" font-family="Arial" font-size="14">Join</text>

<!-- Event 2 -->
<rect x="20" y="190" width="335" height="80" fill="#eef8ff" rx="10" stroke="#bde0fe"/>
<text x="35" y="215" font-family="Arial" font-size="16" font-weight="bold">River Mouth Sweep</text>
<text x="35" y="235" font-family="Arial" font-size="12">Sun, Nov 30, 2025 - 10:00 AM</text>
<rect x="270" y="210" width="70" height="30" fill="#a2d2ff" rx="5"/>
<text x="305" y="225" dominant-baseline="middle" text-anchor="middle" font-family="Arial" font-size="14">Join</text>

<!-- Event 3 -->
<rect x="20" y="280" width="335" height="80" fill="#eef8ff" rx="10" stroke="#bde0fe"/>
<text x="35" y="305" font-family="Arial" font-size="16" font-weight="bold">Coastal Trail Cleanup</text>
<text x="35" y="325" font-family="Arial" font-size="12">Sat, Dec 6, 2025 - 9:30 AM</text>
<rect x="270" y="300" width="70" height="30" fill="#a2d2ff" rx="5"/>
<text x="305" y="315" dominant-baseline="middle" text-anchor="middle" font-family="Arial" font-size="14">Join</text>

<!-- Bottom Nav -->
<rect y="607" width="375" height="60" fill="#f0f0f0"/>
<line y1="607" x2="375" y2="607" stroke="#ccc"/>

<text x="58.75" y="637" dominant-baseline="middle" text-anchor="middle" font-family="Arial" font-size="12">Home</text>
<text x="146.875" y="637" dominant-baseline="middle" text-anchor="middle" font-family="Arial" font-size="12" font-weight="bold">Events</text>
<text x="235" y="637" dominant-baseline="middle" text-anchor="middle" font-family="Arial" font-size="12">Report</text>
<text x="323.125" y="637" dominant-baseline="middle" text-anchor="middle" font-family="Arial" font-size="12">Donate</text>

</svg>