<svg width="375" height="667" viewBox="0 0 375 667" fill="none" xmlns="http://www.w3.org/2000/svg">
<!-- Background screen (Events screen, slightly dimmed) -->
<g opacity="0.5">
    <rect width="375" height="667" fill="white" stroke="#333" stroke-width="2"/>
    <rect x="1" y="1" width="373" height="50" fill="#f0f0f0"/>
    <text x="50%" y="30" dominant-baseline="middle" text-anchor="middle" font-family="Arial" font-size="18">Cleanup Events</text>

    <text x="20" y="80" font-family="Arial" font-size="14">Upcoming Events Near You</text>

    <!-- Event 1 -->
    <rect x="20" y="100" width="335" height="80" fill="#eef8ff" rx="10" stroke="#bde0fe"/>
    <text x="35" y="125" font-family="Arial" font-size="16" font-weight="bold">Ocean Beach Cleanup</text>
    <text x="35" y="145" font-family="Arial" font-size="12">Sat, Nov 29, 2025 - 9:00 AM</text>
    <rect x="270" y="120" width="70" height="30" fill="#a2d2ff" rx="5"/>
    <text x="305" y="135" dominant-baseline="middle" text-anchor="middle" font-family="Arial" font-size="14">Join</text>
    
    <!-- Other events... -->
    <rect x="20" y="190" width="335" height="80" fill="#eef8ff" rx="10" stroke="#bde0fe"/>
    <rect x="20" y="280" width="335" height="80" fill="#eef8ff" rx="10" stroke="#bde0fe"/>
</g>

<!-- Pop-up Modal -->
<rect x="50" y="250" width="275" height="150" fill="white" rx="15" stroke="#999" stroke-width="2"/>
<text x="50%" y="280" dominant-baseline="middle" text-anchor="middle" font-family="Arial" font-size="16" font-weight="bold">Confirm Registration</text>
<text x="50%" y="310" dominant-baseline="middle" text-anchor="middle" font-family="Arial" font-size="14">Join the Ocean Beach Cleanup?</text>

<rect x="75" y="350" width="100" height="35" fill="#e0e0e0" rx="5"/>
<text x="125" y="367.5" dominant-baseline="middle" text-anchor="middle" font-family="Arial" font-size="14">Cancel</text>

<rect x="195" y="350" width="100" height="35" fill="#4CAF50" rx="5"/>
<text x="245" y="367.5" dominant-baseline="middle" text-anchor="middle" font-family="Arial" font-size="14" fill="white">Confirm</text>

</svg>