<?xml version="1.0" encoding="UTF-8"?>
<svg xmlns="http://www.w3.org/2000/svg" width="375" height="812" viewBox="0 0 375 812">
  <rect width="375" height="812" fill="#f8f3ec" />
  <rect x="18" y="26" width="339" height="760" rx="18" fill="#ffffff" stroke="#c9b9a3" stroke-width="3" />
  <text x="50%" y="70" text-anchor="middle" font-family="Courier New, monospace" font-size="24" fill="#333333">OceanCare</text>
  <text x="50%" y="110" text-anchor="middle" font-family="Courier New, monospace" font-size="16" fill="#555555">Home Screen</text>
  <rect x="38" y="150" width="299" height="140" rx="12" fill="#e7f6ff" stroke="#95c8ff" stroke-width="2" />
  <text x="50%" y="210" text-anchor="middle" font-family="Courier New, monospace" font-size="18" fill="#1c6baa">Hero: Protect Our Oceans</text>
  <text x="50%" y="240" text-anchor="middle" font-family="Courier New, monospace" font-size="14" fill="#1c6baa">Volunteer | Report | Donate</text>
  <rect x="54" y="322" width="267" height="64" rx="12" fill="#fff6d5" stroke="#f0b429" stroke-width="2" />
  <text x="188.5" y="360" text-anchor="middle" font-family="Courier New, monospace" font-size="16" fill="#965f00">Find Events</text>
  <line x1="54" y1="416" x2="321" y2="416" stroke="#d8cbb5" stroke-width="2" stroke-dasharray="6 8" />
  <rect x="54" y="432" width="267" height="64" rx="12" fill="#e8ffe3" stroke="#78c47a" stroke-width="2" />
  <text x="188.5" y="470" text-anchor="middle" font-family="Courier New, monospace" font-size="16" fill="#31723a">Report Issue</text>
  <rect x="54" y="542" width="267" height="64" rx="12" fill="#ffe3ef" stroke="#f28aa6" stroke-width="2" />
  <text x="188.5" y="580" text-anchor="middle" font-family="Courier New, monospace" font-size="16" fill="#8d2c44">Donate</text>
  <path d="M 122 320 L 250 190" stroke="#cc4444" stroke-width="4" marker-end="url(#arrow)" />
  <text x="252" y="186" font-family="Courier New, monospace" font-size="14" fill="#cc4444">Tap "Find Events"</text>
  <rect x="100" y="700" width="175" height="60" rx="30" fill="#ffffff" stroke="#aaaaaa" stroke-width="3" />
  <text x="188" y="738" text-anchor="middle" font-family="Courier New, monospace" font-size="14" fill="#333333">Sketchy Nav Bar</text>
  <defs>
    <marker id="arrow" markerWidth="12" markerHeight="12" refX="6" refY="6" orient="auto">
      <path d="M 0 0 L 12 6 L 0 12 z" fill="#cc4444" />
    </marker>
  </defs>
</svg>
