<?xml version="1.0" encoding="UTF-8"?>
<svg xmlns="http://www.w3.org/2000/svg" width="375" height="812" viewBox="0 0 375 812">
  <rect width="375" height="812" fill="#f7f4ef" />
  <rect x="18" y="26" width="339" height="760" rx="18" fill="#ffffff" stroke="#c9b9a3" stroke-width="3" />
  <text x="50%" y="70" text-anchor="middle" font-family="Courier New, monospace" font-size="24" fill="#333333">Report Issue</text>
  <text x="50%" y="110" text-anchor="middle" font-family="Courier New, monospace" font-size="16" fill="#555555">Task 2 - Step 1</text>
  <rect x="52" y="150" width="271" height="180" rx="12" fill="#eef2ff" stroke="#94a3ff" stroke-width="2" stroke-dasharray="12 10" />
  <text x="188" y="200" text-anchor="middle" font-family="Courier New, monospace" font-size="16" fill="#475569">Tap to add photo</text>
  <line x1="90" y1="204" x2="286" y2="276" stroke="#cbd5f5" stroke-width="3" />
  <line x1="90" y1="276" x2="286" y2="204" stroke="#cbd5f5" stroke-width="3" />
  <text x="52" y="360" font-family="Courier New, monospace" font-size="14" fill="#555555">Location</text>
  <rect x="52" y="370" width="271" height="44" rx="8" fill="#ffffff" stroke="#bfc4ca" stroke-width="2" />
  <text x="64" y="395" font-family="Courier New, monospace" font-size="14" fill="#94a3b8">Enter beach or coordinates</text>
  <text x="52" y="440" font-family="Courier New, monospace" font-size="14" fill="#555555">Description</text>
  <rect x="52" y="450" width="271" height="140" rx="10" fill="#ffffff" stroke="#bfc4ca" stroke-width="2" />
  <text x="64" y="480" font-family="Courier New, monospace" font-size="14" fill="#94a3b8">Describe the debris you found...</text>
  <rect x="52" y="614" width="271" height="60" rx="12" fill="#78c47a" />
  <text x="188" y="650" text-anchor="middle" font-family="Courier New, monospace" font-size="18" fill="#ffffff">Submit Report</text>
  <path d="M 240 150 L 320 110" stroke="#cc4444" stroke-width="4" marker-end="url(#arrow)" />
  <text x="322" y="104" text-anchor="end" font-family="Courier New, monospace" font-size="14" fill="#cc4444">Start with photo area</text>
  <defs>
    <marker id="arrow" markerWidth="12" markerHeight="12" refX="6" refY="6" orient="auto">
      <path d="M 0 0 L 12 6 L 0 12 z" fill="#cc4444" />
    </marker>
  </defs>
</svg>
