<?xml version="1.0" encoding="UTF-8"?>
<svg xmlns="http://www.w3.org/2000/svg" width="375" height="812" viewBox="0 0 375 812">
  <rect width="375" height="812" fill="#f7f2eb" />
  <rect x="18" y="26" width="339" height="760" rx="18" fill="#ffffff" stroke="#c9b9a3" stroke-width="3" />
  <text x="50%" y="70" text-anchor="middle" font-family="Courier New, monospace" font-size="24" fill="#333333">Donate</text>
  <text x="50%" y="110" text-anchor="middle" font-family="Courier New, monospace" font-size="16" fill="#555555">Task 3 - Step 1</text>
  <rect x="48" y="140" width="279" height="120" rx="12" fill="#ffe7f0" stroke="#f28aa6" stroke-width="2" />
  <text x="188" y="185" text-anchor="middle" font-family="Courier New, monospace" font-size="18" fill="#8d2c44">Save the Turtles</text>
  <text x="188" y="210" text-anchor="middle" font-family="Courier New, monospace" font-size="14" fill="#8d2c44">Current goal: $5,000</text>
  <text x="48" y="296" font-family="Courier New, monospace" font-size="14" fill="#555555">Choose amount</text>
  <rect x="48" y="306" width="279" height="90" rx="12" fill="#ffffff" stroke="#ded0b8" stroke-width="2" />
  <rect x="62" y="320" width="85" height="60" rx="10" fill="#f3f4f6" stroke="#bfc4ca" stroke-width="2" />
  <text x="104" y="356" text-anchor="middle" font-family="Courier New, monospace" font-size="18" fill="#475569">$10</text>
  <rect x="146" y="320" width="85" height="60" rx="10" fill="#f7f7ff" stroke="#6b7cff" stroke-width="3" />
  <text x="188" y="356" text-anchor="middle" font-family="Courier New, monospace" font-size="18" fill="#2e3a9f">$20</text>
  <rect x="230" y="320" width="85" height="60" rx="10" fill="#f3f4f6" stroke="#bfc4ca" stroke-width="2" />
  <text x="272" y="356" text-anchor="middle" font-family="Courier New, monospace" font-size="18" fill="#475569">$50</text>
  <rect x="48" y="420" width="279" height="50" rx="10" fill="#ffffff" stroke="#ded0b8" stroke-width="2" />
  <text x="62" y="450" font-family="Courier New, monospace" font-size="14" fill="#555555">Message (optional)</text>
  <rect x="48" y="492" width="279" height="60" rx="12" fill="#8fd0db" />
  <text x="188" y="528" text-anchor="middle" font-family="Courier New, monospace" font-size="18" fill="#ffffff">Donate Now</text>
  <path d="M 188 492 L 188 472" stroke="#cc4444" stroke-width="4" marker-end="url(#arrow)" />
  <text x="188" y="460" text-anchor="middle" font-family="Courier New, monospace" font-size="14" fill="#cc4444">Tap after choosing $20</text>
  <defs>
    <marker id="arrow" markerWidth="12" markerHeight="12" refX="6" refY="6" orient="auto">
      <path d="M 0 0 L 12 6 L 0 12 z" fill="#cc4444" />
    </marker>
  </defs>
</svg>
