<?xml version="1.0" encoding="UTF-8"?>
<svg xmlns="http://www.w3.org/2000/svg" width="375" height="812" viewBox="0 0 375 812">
  <rect width="375" height="812" fill="#f7f2eb" />
  <rect x="18" y="26" width="339" height="760" rx="18" fill="#ffffff" stroke="#c9b9a3" stroke-width="3" />
  <text x="50%" y="70" text-anchor="middle" font-family="Courier New, monospace" font-size="24" fill="#333333">Cleanup Events</text>
  <text x="50%" y="110" text-anchor="middle" font-family="Courier New, monospace" font-size="16" fill="#555555">Task 1 - Step 2</text>
  <rect x="38" y="150" width="299" height="96" rx="12" fill="#e7f6ff" stroke="#95c8ff" stroke-width="2" />
  <text x="50%" y="192" text-anchor="middle" font-family="Courier New, monospace" font-size="18" fill="#1c6baa">Ocean Beach Cleanup</text>
  <text x="50%" y="216" text-anchor="middle" font-family="Courier New, monospace" font-size="14" fill="#1c6baa">Sat - 9:00 AM - Marina</text>
  <rect x="120" y="242" width="135" height="34" rx="8" fill="#fff6d5" stroke="#f0b429" stroke-width="2" />
  <text x="187" y="266" text-anchor="middle" font-family="Courier New, monospace" font-size="14" fill="#965f00">Join</text>
  <rect x="38" y="266" width="299" height="400" rx="12" fill="#fcfbf7" stroke="#ded0b8" stroke-width="2" stroke-dasharray="10 8" />
  <text x="50%" y="330" text-anchor="middle" font-family="Courier New, monospace" font-size="14" fill="#8a775c">Other events listed here...</text>
  <rect x="60" y="318" width="255" height="178" rx="12" fill="#ffffff" stroke="#f0b429" stroke-width="2" />
  <text x="188" y="350" text-anchor="middle" font-family="Courier New, monospace" font-size="16" fill="#965f00">Confirm Registration?</text>
  <text x="188" y="380" text-anchor="middle" font-family="Courier New, monospace" font-size="14" fill="#555555">Ocean Beach Cleanup</text>
  <rect x="88" y="404" width="198" height="44" rx="10" fill="#78c47a" />
  <text x="187" y="433" text-anchor="middle" font-family="Courier New, monospace" font-size="16" fill="#ffffff">Confirm</text>
  <rect x="116" y="456" width="142" height="40" rx="10" fill="#ffffff" stroke="#aaaaaa" stroke-width="2" />
  <text x="187" y="482" text-anchor="middle" font-family="Courier New, monospace" font-size="14" fill="#555555">Maybe Later</text>
  <path d="M 240 244 L 305 190" stroke="#cc4444" stroke-width="4" marker-end="url(#arrow)" />
  <text x="307" y="186" font-family="Courier New, monospace" font-size="14" fill="#cc4444" text-anchor="end">Pop-up overlay</text>
  <defs>
    <marker id="arrow" markerWidth="12" markerHeight="12" refX="6" refY="6" orient="auto">
      <path d="M 0 0 L 12 6 L 0 12 z" fill="#cc4444" />
    </marker>
  </defs>
</svg>
